<?xml version="1.0" encoding="UTF-8" standalone="no"?>
<!DOCTYPE svg PUBLIC "-//W3C//DTD SVG 1.1//EN" "http://www.w3.org/Graphics/SVG/1.1/DTD/svg11.dtd">
<svg xmlns="http://www.w3.org/2000/svg" version="1.1" viewBox="0.00 0.00 48.00 48.00">
<path fill="" d="
  M 32.00 11.96
  A 0.36 0.36 0.0 0 0 31.38 11.70
  L 27.36 15.76
  A 1.20 1.20 0.0 0 1 25.63 15.73
  L 25.37 15.45
  Q 24.44 14.45 25.41 13.48
  L 32.44 6.43
  A 1.49 1.48 -44.9 0 1 34.55 6.43
  L 41.59 13.46
  A 1.44 1.44 0.0 0 1 41.64 15.43
  L 41.38 15.73
  A 1.19 1.18 -46.1 0 1 39.65 15.77
  L 35.69 11.76
  A 0.41 0.40 -67.6 0 0 35.00 12.05
  L 35.00 33.25
  A 1.15 1.14 1.0 0 1 33.81 34.39
  L 33.25 34.37
  Q 32.00 34.33 32.00 33.08
  L 32.00 11.96
  Z"
/>
<rect fill="" x="-2.96" y="-1.48" transform="translate(9.00,8.50) rotate(0.1)" width="5.92" height="2.96" rx="1.40"/>
<rect fill="" x="-4.96" y="-1.47" transform="translate(11.00,16.49) rotate(-0.2)" width="9.92" height="2.94" rx="1.41"/>
<rect fill="" x="6.03" y="23.01" width="13.94" height="2.98" rx="1.45"/>
<rect fill="" x="6.03" y="31.01" width="17.94" height="2.98" rx="1.46"/>
<rect fill="" x="6.03" y="39.01" width="21.94" height="2.98" rx="1.47"/>
</svg>
