<svg width="25" height="24" viewBox="0 0 25 24" fill="none" xmlns="http://www.w3.org/2000/svg">
<path d="M18.3896 20.8499H6.60955C6.29187 20.8502 5.98326 20.744 5.73309 20.5482C5.48291 20.3524 5.30562 20.0784 5.22955 19.7699L2.57955 9.15992C2.55369 9.05663 2.55174 8.9488 2.57383 8.84464C2.59593 8.74048 2.6415 8.64274 2.70707 8.55884C2.77264 8.47495 2.85649 8.40712 2.95223 8.36052C3.04797 8.31392 3.15307 8.28977 3.25955 8.28992H21.7396C21.846 8.28977 21.9511 8.31392 22.0469 8.36052C22.1426 8.40712 22.2265 8.47495 22.292 8.55884C22.3576 8.64274 22.4032 8.74048 22.4253 8.84464C22.4474 8.9488 22.4454 9.05663 22.4196 9.15992L19.7696 19.7699C19.6935 20.0784 19.5162 20.3524 19.266 20.5482C19.0158 20.744 18.7072 20.8502 18.3896 20.8499V20.8499Z" stroke="" stroke-width="2.5" stroke-linecap="round" stroke-linejoin="round"/>
<path d="M10.2994 3.14996L7.39941 8.28996" stroke="" stroke-width="2.5" stroke-linecap="round" stroke-linejoin="round"/>
<path d="M14.3799 3.14996L17.2899 8.28996" stroke="" stroke-width="2.5" stroke-linecap="round" stroke-linejoin="round"/>
</svg>
