<?xml version="1.0" encoding="UTF-8" standalone="no"?>
<!DOCTYPE svg PUBLIC "-//W3C//DTD SVG 1.1//EN" "http://www.w3.org/Graphics/SVG/1.1/DTD/svg11.dtd">
<svg xmlns="http://www.w3.org/2000/svg" version="1.1" viewBox="0.00 0.00 48.00 48.00">
	<rect fill="" x="6.03" y="7.01" width="21.94" height="2.98" rx="1.46"/>
	<path fill="" d="
  M 35.00 36.96
  Q 35.00 37.90 35.67 37.23
  L 39.74 33.15
  A 1.05 1.04 -46.4 0 1 41.17 33.11
  L 41.59 33.50
  A 1.36 1.36 0.0 0 1 41.65 35.48
  L 34.55 42.57
  A 1.49 1.48 -44.9 0 1 32.44 42.57
  L 25.45 35.56
  Q 24.48 34.58 25.42 33.56
  L 25.70 33.25
  A 1.13 1.13 0.0 0 1 27.33 33.22
  L 31.33 37.23
  A 0.39 0.39 0.0 0 0 32.00 36.95
  L 32.03 15.74
  A 1.14 1.14 0.0 0 1 33.18 14.60
  L 33.60 14.60
  A 1.41 1.41 0.0 0 1 35.00 16.01
  L 35.00 36.96
  Z"
	/>
	<rect fill="" x="-8.97" y="-1.49" transform="translate(15.00,16.50) rotate(-0.1)" width="17.94" height="2.98"
	      rx="1.46"/>
	<rect fill="" x="-6.96" y="-1.49" transform="translate(13.00,24.50) rotate(0.1)" width="13.92" height="2.98"
	      rx="1.45"/>
	<rect fill="" x="-4.96" y="-1.47" transform="translate(11.00,32.52) rotate(0.3)" width="9.92" height="2.94"
	      rx="1.41"/>
	<rect fill="" x="6.04" y="39.02" width="5.92" height="2.96" rx="1.40"/>
</svg>
