<?xml version="1.0" encoding="UTF-8" standalone="no"?>
<!DOCTYPE svg PUBLIC "-//W3C//DTD SVG 1.1//EN" "http://www.w3.org/Graphics/SVG/1.1/DTD/svg11.dtd">
<svg xmlns="http://www.w3.org/2000/svg" version="1.1" viewBox="0.00 0.00 48.00 48.00">
<g stroke-width="2.00" fill="none" stroke-linecap="butt">
<path stroke="#ae811f" vector-effect="non-scaling-stroke" d="
  M 22.47 29.69
  A 0.32 0.32 0.0 0 0 22.79 30.00
  L 25.18 30.00
  A 0.32 0.32 0.0 0 0 25.50 29.69
  L 25.87 18.33
  A 0.32 0.32 0.0 0 0 25.55 18.00
  L 22.44 18.01
  A 0.32 0.32 0.0 0 0 22.12 18.34
  L 22.47 29.69"
/>
<path stroke="#ae811f" vector-effect="non-scaling-stroke" d="
  M 25.92 34.13
  A 1.93 1.93 0.0 0 0 23.99 32.20
  A 1.93 1.93 0.0 0 0 22.06 34.13
  A 1.93 1.93 0.0 0 0 23.99 36.06
  A 1.93 1.93 0.0 0 0 25.92 34.13"
/>
</g>
<path fill="#ffc107" d="
  M 6.32 36.96
  L 22.24 9.09
  A 2.03 2.03 0.0 0 1 25.76 9.09
  L 41.68 36.96
  A 2.03 2.03 0.0 0 1 39.92 40.00
  L 8.08 40.00
  A 2.03 2.03 0.0 0 1 6.32 36.96
  Z
  M 22.47 29.69
  A 0.32 0.32 0.0 0 0 22.79 30.00
  L 25.18 30.00
  A 0.32 0.32 0.0 0 0 25.50 29.69
  L 25.87 18.33
  A 0.32 0.32 0.0 0 0 25.55 18.00
  L 22.44 18.01
  A 0.32 0.32 0.0 0 0 22.12 18.34
  L 22.47 29.69
  Z
  M 25.92 34.13
  A 1.93 1.93 0.0 0 0 23.99 32.20
  A 1.93 1.93 0.0 0 0 22.06 34.13
  A 1.93 1.93 0.0 0 0 23.99 36.06
  A 1.93 1.93 0.0 0 0 25.92 34.13
  Z"
/>
<path fill="#5d4037" d="
  M 22.47 29.69
  L 22.12 18.34
  A 0.32 0.32 0.0 0 1 22.44 18.01
  L 25.55 18.00
  A 0.32 0.32 0.0 0 1 25.87 18.33
  L 25.50 29.69
  A 0.32 0.32 0.0 0 1 25.18 30.00
  L 22.79 30.00
  A 0.32 0.32 0.0 0 1 22.47 29.69
  Z"
/>
<circle fill="#5d4037" cx="23.99" cy="34.13" r="1.93"/>
</svg>
