<svg width="180" height="180" viewBox="0 0 217 241" fill="none" xmlns="http://www.w3.org/2000/svg">
	<path
		d="M51.0645 81.1352L69.4143 30.5176C69.5326 30.2073 69.5104 29.9044 69.3478 29.6088C64.2919 20.5944 65.2011 12.6402 72.0753 5.74639C77.3973 0.404227 86.1564 -0.681941 93.0418 2.53223C101.801 6.63306 105.205 14.1882 103.253 25.1976C103.179 25.5819 103.268 25.9218 103.519 26.2173L136.926 66.0508C137.082 66.237 137.283 66.3798 137.511 66.4652C137.738 66.5507 137.983 66.5759 138.223 66.5385C144.669 65.4893 151.096 64.3698 157.505 63.1802C164.031 61.9611 168.98 61.5029 172.351 61.8059C183.483 62.8108 191.599 68.249 196.699 78.1206C198.192 81.0022 199.404 85.092 200.336 90.3898C205.739 120.958 211.161 151.514 216.601 182.06C218.852 194.706 211.279 207.408 200.713 212.949C197.697 214.531 192.999 215.879 186.62 216.995C142.876 224.672 99.1399 232.353 55.4108 240.037C40.5203 242.653 27.4149 238.208 20.2856 224.498C18.7925 221.639 17.5729 217.523 16.6268 212.151C11.5413 183.283 6.41146 154.426 1.2373 125.579C0.305947 120.385 0.0361386 116.177 0.427897 112.955C1.80275 101.673 7.54979 93.6483 17.669 88.8825C20.3743 87.6042 24.4619 86.5143 29.9318 85.6129C36.6803 84.5046 43.4104 83.2817 50.1221 81.9443C50.3356 81.8999 50.5342 81.8023 50.6991 81.6607C50.8639 81.5192 50.9897 81.3383 51.0645 81.1352ZM96.113 19.39C96.113 16.4681 94.9519 13.666 92.885 11.5999C90.8182 9.53384 88.015 8.37315 85.0921 8.37315C82.1691 8.37315 79.3659 9.53384 77.299 11.5999C75.2322 13.666 74.0711 16.4681 74.0711 19.39C74.0711 20.8367 74.3561 22.2693 74.91 23.6059C75.4638 24.9426 76.2756 26.157 77.299 27.1801C78.3224 28.2031 79.5374 29.0146 80.8745 29.5682C82.2116 30.1219 83.6448 30.4068 85.0921 30.4068C86.5394 30.4068 87.9725 30.1219 89.3096 29.5682C90.6467 29.0146 91.8617 28.2031 92.885 27.1801C93.9084 26.157 94.7202 24.9426 95.2741 23.6059C95.828 22.2693 96.113 20.8367 96.113 19.39ZM75.5679 36.3475L59.7904 79.772C59.7676 79.8327 59.7615 79.8984 59.7725 79.9623C59.7835 80.0261 59.8113 80.086 59.853 80.1356C59.8948 80.1852 59.9489 80.2228 60.01 80.2446C60.0711 80.2664 60.1369 80.2716 60.2006 80.2596L127.934 68.3783C128.415 68.297 128.5 68.068 128.189 67.6911L99.0845 32.9781C98.8258 32.6678 98.5449 32.6456 98.2418 32.9116C91.6337 38.5937 84.3122 39.6392 76.2775 36.0482C76.2105 36.0192 76.1384 36.0039 76.0656 36.0033C75.9928 36.0028 75.9209 36.017 75.8544 36.0451C75.7878 36.0731 75.728 36.1145 75.6787 36.1665C75.6295 36.2185 75.5917 36.2801 75.5679 36.3475ZM26.6498 93.9919C23.7111 94.5084 20.9032 95.599 18.3866 97.2015C15.87 98.8039 13.6942 100.887 11.9837 103.33C10.2731 105.774 9.06144 108.531 8.41795 111.444C7.77446 114.356 7.71179 117.367 8.23351 120.304L24.9313 214.534C25.9804 220.454 29.3371 225.715 34.264 229.163C39.191 232.61 45.2854 233.962 51.2087 232.921L190.301 208.527C193.24 208.012 196.048 206.922 198.565 205.321C201.082 203.72 203.259 201.639 204.97 199.196C206.682 196.753 207.895 193.997 208.54 191.085C209.184 188.173 209.249 185.163 208.729 182.226L192.031 87.9736C190.984 82.0519 187.629 76.7878 182.702 73.3379C177.774 69.8881 171.679 68.5347 165.754 69.5753L26.6498 93.9919Z"
		fill=""/>
	<path
		d="M149.643 151.248C149.643 162.163 145.306 172.63 137.586 180.348C129.865 188.065 119.394 192.401 108.476 192.401C97.5571 192.401 87.0859 188.065 79.3654 180.348C71.6449 172.63 67.3076 162.163 67.3076 151.248C67.3076 140.334 71.6449 129.867 79.3654 122.149C87.0859 114.432 97.5571 110.096 108.476 110.096C119.394 110.096 129.865 114.432 137.586 122.149C145.306 129.867 149.643 140.334 149.643 151.248ZM101.712 118.619C95.0818 119.897 89.3052 123.1 84.3824 128.228C83.998 128.627 84.0313 128.986 84.4821 129.303L137.126 167.02C137.48 167.271 137.761 167.205 137.968 166.821C151.362 141.661 129.398 113.288 101.712 118.619ZM132.813 173.326L79.5926 135.377C79.5797 135.366 79.5648 135.358 79.5487 135.354C79.5326 135.349 79.5157 135.347 79.499 135.349C79.4824 135.352 79.4663 135.357 79.4519 135.366C79.4375 135.374 79.425 135.386 79.4152 135.399V135.41C77.1884 138.529 75.6739 142.11 74.958 145.948C74.2421 149.786 74.3389 153.806 75.2429 157.779C76.1469 161.752 77.8404 165.6 80.2266 169.102C82.6128 172.605 85.645 175.693 89.15 178.192L89.2054 178.225C92.7093 180.724 96.6172 182.584 100.706 183.699C104.795 184.814 108.985 185.162 113.036 184.723C117.087 184.285 120.921 183.069 124.318 181.143C127.715 179.218 130.609 176.622 132.835 173.504V173.493C132.853 173.467 132.861 173.436 132.857 173.405C132.853 173.374 132.837 173.346 132.813 173.326Z"
		fill=""/>
</svg>
