<?xml version="1.0" encoding="UTF-8" standalone="no"?>
<!DOCTYPE svg PUBLIC "-//W3C//DTD SVG 1.1//EN" "http://www.w3.org/Graphics/SVG/1.1/DTD/svg11.dtd">
<svg xmlns="http://www.w3.org/2000/svg" version="1.1" viewBox="0.00 0.00 128.00 128.00">
<g stroke-width="2.00" fill="none" stroke-linecap="butt">
<path stroke="#8e8087" vector-effect="non-scaling-stroke" d="
  M 95.50 54.14
  Q 93.84 56.66 91.16 58.42"
/>
<path stroke="#8eb3a5" vector-effect="non-scaling-stroke" d="
  M 87.45 61.03
  Q 74.39 67.70 61.43 61.25"
/>
<path stroke="#ffcb62" vector-effect="non-scaling-stroke" d="
  M 98.51 77.64
  L 61.87 77.63
  A 1.77 1.74 69.6 0 1 60.53 77.00
  L 47.53 61.31"
/>
<path stroke="#ffa465" vector-effect="non-scaling-stroke" d="
  M 105.30 77.71
  Q 105.40 77.49 105.34 77.20
  Q 105.30 76.99 105.10 76.78
  Q 100.73 72.33 96.31 67.94
  Q 94.37 66.02 94.77 62.81
  A 0.98 0.98 0.0 0 0 94.47 61.98
  L 93.61 61.17"
/>
<path stroke="#f2b63d" vector-effect="non-scaling-stroke" d="
  M 46.67 117.99
  Q 46.59 90.82 46.62 63.75
  Q 46.62 62.40 45.96 62.11"
/>
<path stroke="#ffcb62" vector-effect="non-scaling-stroke" d="
  M 46.26 61.21
  Q 46.28 62.18 45.96 62.11"
/>
<path stroke="#f2c15e" vector-effect="non-scaling-stroke" d="
  M 45.96 62.11
  L 33.70 76.69
  A 2.33 2.33 0.0 0 1 31.93 77.53
  L 17.95 77.62"
/>
<path stroke="#89c0de" vector-effect="non-scaling-stroke" d="
  M 93.60 37.21
  A 19.44 19.44 0.0 0 0 74.16 17.77
  A 19.44 19.44 0.0 0 0 54.72 37.21
  A 19.44 19.44 0.0 0 0 74.16 56.65
  A 19.44 19.44 0.0 0 0 93.60 37.21"
/>
<path stroke="#829ea9" vector-effect="non-scaling-stroke" d="
  M 74.76 34.23
  A 0.94 0.94 0.0 0 1 73.60 34.23
  L 68.55 30.25
  A 0.94 0.94 0.0 0 0 67.23 31.57
  L 71.21 36.62
  A 0.94 0.94 0.0 0 1 71.21 37.78
  L 67.23 42.83
  A 0.94 0.94 0.0 0 0 68.55 44.15
  L 73.60 40.17
  A 0.94 0.94 0.0 0 1 74.76 40.17
  L 79.81 44.15
  A 0.94 0.94 0.0 0 0 81.13 42.83
  L 77.15 37.78
  A 0.94 0.94 0.0 0 1 77.15 36.62
  L 81.13 31.57
  A 0.94 0.94 0.0 0 0 79.81 30.25
  L 74.76 34.23"
/>
<path stroke="#87864e" vector-effect="non-scaling-stroke" d="
  M 70.38 105.49
  A 1.43 1.43 0.0 0 0 68.95 104.06
  L 53.83 104.06
  A 1.43 1.43 0.0 0 0 52.40 105.49
  L 52.40 105.55
  A 1.43 1.43 0.0 0 0 53.83 106.98
  L 68.95 106.98
  A 1.43 1.43 0.0 0 0 70.38 105.55
  L 70.38 105.49"
/>
<path stroke="#87864e" vector-effect="non-scaling-stroke" d="
  M 70.3902 111.0557
  A 1.29 1.29 0.0 0 0 69.1024 109.7634
  L 53.7225 109.7366
  A 1.29 1.29 0.0 0 0 52.4302 111.0243
  L 52.4298 111.2443
  A 1.29 1.29 0.0 0 0 53.7176 112.5366
  L 69.0975 112.5634
  A 1.29 1.29 0.0 0 0 70.3898 111.2757
  L 70.3902 111.0557"
/>
</g>
<path fill="#1c8fc7" d="
  M 95.50 54.14
  Q 93.84 56.66 91.16 58.42
  L 87.45 61.03
  Q 74.39 67.70 61.43 61.25
  C 40.75 49.67 42.60 19.24 65.51 11.39
  C 79.21 6.70 93.89 13.82 99.31 27.09
  Q 104.90 40.78 95.50 54.14
  Z
  M 93.60 37.21
  A 19.44 19.44 0.0 0 0 74.16 17.77
  A 19.44 19.44 0.0 0 0 54.72 37.21
  A 19.44 19.44 0.0 0 0 74.16 56.65
  A 19.44 19.44 0.0 0 0 93.60 37.21
  Z"
/>
<path fill="#f6f0f5" d="
  M 93.60 37.21
  A 19.44 19.44 0.0 0 1 74.16 56.65
  A 19.44 19.44 0.0 0 1 54.72 37.21
  A 19.44 19.44 0.0 0 1 74.16 17.77
  A 19.44 19.44 0.0 0 1 93.60 37.21
  Z
  M 74.76 34.23
  A 0.94 0.94 0.0 0 1 73.60 34.23
  L 68.55 30.25
  A 0.94 0.94 0.0 0 0 67.23 31.57
  L 71.21 36.62
  A 0.94 0.94 0.0 0 1 71.21 37.78
  L 67.23 42.83
  A 0.94 0.94 0.0 0 0 68.55 44.15
  L 73.60 40.17
  A 0.94 0.94 0.0 0 1 74.76 40.17
  L 79.81 44.15
  A 0.94 0.94 0.0 0 0 81.13 42.83
  L 77.15 37.78
  A 0.94 0.94 0.0 0 1 77.15 36.62
  L 81.13 31.57
  A 0.94 0.94 0.0 0 0 79.81 30.25
  L 74.76 34.23
  Z"
/>
<path fill="#0e4b5c" d="
  M 74.76 34.23
  L 79.81 30.25
  A 0.94 0.94 0.0 0 1 81.13 31.57
  L 77.15 36.62
  A 0.94 0.94 0.0 0 0 77.15 37.78
  L 81.13 42.83
  A 0.94 0.94 0.0 0 1 79.81 44.15
  L 74.76 40.17
  A 0.94 0.94 0.0 0 0 73.60 40.17
  L 68.55 44.15
  A 0.94 0.94 0.0 0 1 67.23 42.83
  L 71.21 37.78
  A 0.94 0.94 0.0 0 0 71.21 36.62
  L 67.23 31.57
  A 0.94 0.94 0.0 0 1 68.55 30.25
  L 73.60 34.23
  A 0.94 0.94 0.0 0 0 74.76 34.23
  Z"
/>
<path fill="#ff7146" d="
  M 95.50 54.14
  L 99.04 57.58
  Q 99.40 57.94 99.91 57.88
  Q 102.91 57.56 104.18 58.82
  Q 113.22 67.78 122.20 76.80
  C 127.85 82.48 119.94 91.28 113.10 84.64
  C 111.36 82.95 107.42 78.15 105.30 77.71
  Q 105.40 77.49 105.34 77.20
  Q 105.30 76.99 105.10 76.78
  Q 100.73 72.33 96.31 67.94
  Q 94.37 66.02 94.77 62.81
  A 0.98 0.98 0.0 0 0 94.47 61.98
  L 93.61 61.17
  L 91.16 58.42
  Q 93.84 56.66 95.50 54.14
  Z"
/>
<path fill="#ffd683" d="
  M 46.26 61.21
  Q 46.28 62.18 45.96 62.11
  L 33.70 76.69
  A 2.33 2.33 0.0 0 1 31.93 77.53
  L 17.95 77.62
  L 4.67 77.70
  Q 4.02 77.70 4.44 77.20
  L 17.56 61.57
  A 1.07 1.05 -69.6 0 1 18.37 61.19
  L 46.26 61.21
  Z"
/>
<path fill="#ffd683" d="
  M 61.43 61.25
  Q 74.39 67.70 87.45 61.03
  L 93.61 61.17
  L 94.47 61.98
  A 0.98 0.98 0.0 0 1 94.77 62.81
  Q 94.37 66.02 96.31 67.94
  Q 100.73 72.33 105.10 76.78
  Q 105.30 76.99 105.34 77.20
  Q 105.40 77.49 105.30 77.71
  L 98.51 77.64
  L 61.87 77.63
  A 1.77 1.74 69.6 0 1 60.53 77.00
  L 47.53 61.31
  L 61.43 61.25
  Z"
/>
<path fill="#ffc040" d="
  M 46.26 61.21
  Q 47.32 61.43 47.53 61.31
  L 60.53 77.00
  A 1.77 1.74 69.6 0 0 61.87 77.63
  L 98.51 77.64
  L 98.53 117.62
  Q 98.53 117.99 98.17 117.99
  L 46.67 117.99
  Q 46.59 90.82 46.62 63.75
  Q 46.62 62.40 45.96 62.11
  Q 46.28 62.18 46.26 61.21
  Z
  M 70.38 105.49
  A 1.43 1.43 0.0 0 0 68.95 104.06
  L 53.83 104.06
  A 1.43 1.43 0.0 0 0 52.40 105.49
  L 52.40 105.55
  A 1.43 1.43 0.0 0 0 53.83 106.98
  L 68.95 106.98
  A 1.43 1.43 0.0 0 0 70.38 105.55
  L 70.38 105.49
  Z
  M 70.3902 111.0557
  A 1.29 1.29 0.0 0 0 69.1024 109.7634
  L 53.7225 109.7366
  A 1.29 1.29 0.0 0 0 52.4302 111.0243
  L 52.4298 111.2443
  A 1.29 1.29 0.0 0 0 53.7176 112.5366
  L 69.0975 112.5634
  A 1.29 1.29 0.0 0 0 70.3898 111.2757
  L 70.3902 111.0557
  Z"
/>
<path fill="#e5ac39" d="
  M 45.96 62.11
  Q 46.62 62.40 46.62 63.75
  Q 46.59 90.82 46.67 117.99
  L 18.71 117.99
  Q 17.95 117.99 17.95 117.23
  L 17.95 77.62
  L 31.93 77.53
  A 2.33 2.33 0.0 0 0 33.70 76.69
  L 45.96 62.11
  Z"
/>
<rect fill="#0e4b5c" x="52.40" y="104.06" width="17.98" height="2.92" rx="1.43"/>
<rect fill="#0e4b5c" x="-8.98" y="-1.40" transform="translate(61.41,111.15) rotate(0.1)" width="17.96" height="2.80" rx="1.29"/>
</svg>
