<svg width="21" height="20" viewBox="0 0 21 20" fill="none" xmlns="http://www.w3.org/2000/svg">
	<path fill-rule="evenodd" clip-rule="evenodd"
	      d="M9.42397 2.65833C9.48153 2.4758 9.59578 2.31637 9.75014 2.2032C9.90449 2.09002 10.0909 2.02901 10.2823 2.02901C10.4737 2.02901 10.6601 2.09002 10.8145 2.2032C10.9688 2.31637 11.0831 2.4758 11.1406 2.65833L12.6906 7.425H17.6906C17.8889 7.4175 18.0841 7.47512 18.2465 7.58903C18.409 7.70295 18.5296 7.8669 18.5901 8.05585C18.6505 8.24479 18.6475 8.44833 18.5814 8.63538C18.5153 8.82242 18.3897 8.98268 18.224 9.09167L14.1656 12.0333L15.7156 16.8083C15.7769 16.9902 15.7785 17.1869 15.72 17.3698C15.6616 17.5526 15.5463 17.712 15.3908 17.8246C15.2354 17.9372 15.048 17.9972 14.8561 17.9957C14.6642 17.9943 14.4777 17.9316 14.324 17.8167L10.2573 14.8417L6.19897 17.7917C6.04522 17.9066 5.85877 17.9693 5.66684 17.9707C5.4749 17.9722 5.28754 17.9122 5.13211 17.7996C4.97668 17.687 4.86133 17.5276 4.80289 17.3448C4.74445 17.1619 4.746 16.9652 4.8073 16.7833L6.3573 12.0083L2.29897 9.06667C2.1332 8.95768 2.00768 8.79742 1.94157 8.61038C1.87546 8.42334 1.8724 8.21979 1.93286 8.03085C1.99333 7.8419 2.11398 7.67795 2.2764 7.56403C2.43881 7.45012 2.63406 7.3925 2.8323 7.4H7.8323L9.42397 2.65833Z"
	      stroke="" stroke-width="1.5" stroke-linecap="round" stroke-linejoin="round"/>
</svg>
